<svg xmlns="http://www.w3.org/2000/svg" width="31" height="22" viewBox="0 0 31 22">
    <g fill="#4A4A4A" fill-rule="nonzero">
        <path d="M12.429 7h-2.286a2.908 2.908 0 0 0-2.02.799.552.552 0 0 0-.073.085l-2.955 4.27a.53.53 0 0 0 .162.756c.093.059.202.09.314.09h6.858a.559.559 0 0 0 .571-.545v-4.91A.559.559 0 0 0 12.429 7zm-.572 4.91H6.634l2.335-3.376a1.773 1.773 0 0 1 1.174-.443h1.714v3.818z"/>
        <path d="M9 13h3v1H9zM5.5 17a1.5 1.5 0 1 0 0 3 1.5 1.5 0 0 0 0-3zm0 2a.5.5 0 1 1 0-1 .5.5 0 0 1 0 1zM24.5 17a1.5 1.5 0 1 0 0 3 1.5 1.5 0 0 0 0-3zm0 2a.5.5 0 1 1 0-1 .5.5 0 0 1 0 1z"/>
        <path d="M30.483 0h-17.05a.514.514 0 0 0-.516.512v3.581h-3.18c-.626 0-1.23.225-1.7.633a.513.513 0 0 0-.076.08l-4.392 5.875c-.41.37-.947.576-1.502.575C0 11.256 0 13.41 0 14.837v3.581c0 1.13.925 2.047 2.067 2.047h.653a3.63 3.63 0 0 0 5.927 0h13.706a3.63 3.63 0 0 0 5.927 0h.653A2.057 2.057 0 0 0 31 18.418V.512A.514.514 0 0 0 30.483 0zm-24.8 20.977c-1.426 0-2.583-1.146-2.583-2.559 0-1.412 1.157-2.558 2.583-2.558 1.427 0 2.584 1.146 2.584 2.558-.002 1.413-1.158 2.557-2.584 2.559zm16.172-3.61a3.548 3.548 0 0 0 0 2.075H9.145c.578-1.893-.502-3.893-2.414-4.465-1.912-.573-3.93.497-4.51 2.39a3.548 3.548 0 0 0 0 2.075h-.154c-.571 0-1.034-.458-1.034-1.024v-3.58c0-1.985.232-2.559 1.034-2.559.824 0 1.617-.308 2.221-.863a.547.547 0 0 0 .075-.08l4.391-5.873a1.56 1.56 0 0 1 .982-.347h3.18v9.21c0 .282.232.511.517.511h11.565a3.61 3.61 0 0 0-3.143 2.53zm3.462 3.61c-1.427 0-2.584-1.146-2.584-2.559 0-1.412 1.157-2.558 2.584-2.558 1.426 0 2.583 1.146 2.583 2.558-.002 1.413-1.157 2.557-2.583 2.559zm4.65-2.559c0 .566-.463 1.024-1.034 1.024h-.155c.579-1.893-.502-3.893-2.414-4.465a3.668 3.668 0 0 0-.72-.14h4.323v3.581zm0-4.604H13.95V1.024h16.017v12.79z"/>
        <path d="M16 2h13v1H16zM16 4h13v1H16zM16 6h13v1H16zM16 8h13v1H16z"/>
    </g>
</svg>
