<svg xmlns="http://www.w3.org/2000/svg" width="22" height="18" viewBox="0 0 22 18">
    <g fill="#FFF" fill-rule="nonzero">
        <path d="M10 4c-1.103 0-2 .829-2 1.848v1.304C8 8.172 8.897 9 10 9s2-.829 2-1.848V5.848C12 4.828 11.103 4 10 4zm0 4.348c-.674 0-1.23-.48-1.289-1.089A2.09 2.09 0 0 0 10 7.696c.49 0 .94-.165 1.289-.437-.06.61-.615 1.089-1.289 1.089zm0-1.304c-.714 0-1.294-.537-1.294-1.196 0-.66.58-1.196 1.294-1.196.714 0 1.294.537 1.294 1.196 0 .66-.58 1.196-1.294 1.196z"/>
        <path d="M10.325 5c-.18 0-.325.192-.325.429V6.57c0 .237.145.429.325.429.179 0 .324-.192.324-.429V5.43c0-.237-.145-.429-.324-.429zM16 0c-1.654 0-3 1.285-3 2.864v1.272C13 5.716 14.346 7 16 7c1.652 0 2.997-1.282 3-2.858V2.864C19 1.284 17.654 0 16 0zm0 6.364c-1.056 0-1.95-.674-2.237-1.595.55.588 1.349.958 2.237.958.888 0 1.687-.37 2.237-.957-.287.92-1.18 1.594-2.237 1.594zm0-1.273c-1.287 0-2.333-1-2.333-2.227 0-1.228 1.046-2.228 2.333-2.228 1.287 0 2.333 1 2.333 2.228 0 1.228-1.046 2.227-2.333 2.227z"/>
        <path d="M16.325 2c-.18 0-.325.122-.325.273v1.454c0 .15.145.273.325.273.179 0 .324-.122.324-.273V2.273c0-.15-.145-.273-.324-.273zM21.814 11.09a1.617 1.617 0 0 0-2.191-.594c-.14.068-1.923.943-3.393 1.56a.321.321 0 1 0 .25.592 75.285 75.285 0 0 0 3.455-1.59.97.97 0 0 1 1.321.354c.309.532-.173 1.117-.41 1.355-1.6 1.288-6.028 4.59-7.517 4.59-1.65 0-6.28-.978-7.412-1.223v-5.252c2.245-.329 3.435.084 5.927.95.758.264 1.617.562 2.661.895.156.068.588.31.423.858-.1.333-.422.651-.895.563-.634-.119-4.369-.624-4.528-.645a.322.322 0 1 0-.086.637c.039.005 3.877.524 4.496.64.096.018.189.027.279.027.684 0 1.188-.49 1.352-1.037.173-.576-.007-1.304-.797-1.638a.083.083 0 0 0-.003-.001l-.003-.002-.013-.004-.013-.005c-1.043-.333-1.903-.631-2.66-.895-2.486-.864-3.796-1.318-6.14-.992v-.269a.322.322 0 0 0-.322-.321h-.967v-.321A.322.322 0 0 0 4.306 9H.322A.322.322 0 0 0 0 9.322v7.07a.322.322 0 0 0 .645 0V9.643h3.338v7.714H3.34v-.321a.322.322 0 0 0-.645 0v.321H.322a.322.322 0 1 0 0 .643h3.984a.322.322 0 0 0 .322-.322v-.337h.967a.322.322 0 0 0 .322-.322v-.227C7.266 17.082 11.655 18 13.33 18c.881 0 2.443-.783 4.776-2.393a60.811 60.811 0 0 0 3.186-2.373c.7-.7.896-1.501.523-2.144zM5.273 16.387v.311h-.645v-6.412h.645v6.101z"/>
    </g>
</svg>
