<svg xmlns="http://www.w3.org/2000/svg" width="144" height="118" viewBox="0 0 144 118">
    <g fill="none" fill-rule="evenodd">
        <text fill="#D9D9D9" font-family="NeuzeitGroT-Regu, NeuzeitGroT" font-size="24" transform="translate(-5)">
            <tspan x="3.686" y="88">NO HAY FOTO </tspan> <tspan x="16.207" y="117">DISPONIBLE</tspan>
        </text>
        <g fill-rule="nonzero">
            <path fill="#D9D9D9" d="M17.664 23.889c2.148 0 3.897-1.725 3.897-3.844 0-2.12-1.749-3.844-3.897-3.844-2.148 0-3.896 1.724-3.896 3.844s1.748 3.844 3.896 3.844zM37.576 9C38.36 9 39 9.63 39 10.405v30.19C39 41.37 38.361 42 37.576 42H1.424C.64 42 0 41.37 0 40.595v-30.19C0 9.63.639 9 1.424 9h36.152zm-19.912 9.455c.889 0 1.611.713 1.611 1.59 0 .876-.722 1.59-1.61 1.59-.889 0-1.612-.714-1.612-1.59 0-.877.723-1.59 1.611-1.59zm19.05-7.2H2.286v21.463l7.186-7.09c.228-.224.53-.347.85-.347.322 0 .624.123.85.348l6.493 6.405L27.83 22.006c.468-.462 1.23-.463 1.699-.001l7.187 7.09v-17.84zM2.286 39.745h34.43v-7.46l-8.036-7.93-10.165 10.029c-.227.224-.529.348-.85.348-.32 0-.623-.124-.85-.349l-6.493-6.405-8.036 7.928v3.84z" transform="translate(-5) translate(56)"/>
            <path fill="#FFF" d="M14 12.577L27.804 0 31 3.254 20.225 13.07 27.527 22.34 20.174 29.1 26.031 37.028 21.103 45 17.108 42.709 20.484 37.245 14.051 28.538 21.313 21.862z" transform="translate(-5) translate(56)"/>
        </g>
    </g>
</svg>
