<svg xmlns="http://www.w3.org/2000/svg" width="17" height="18" viewBox="0 0 17 18">
    <g fill="#F42B17" fill-rule="nonzero">
        <path d="M14.914 13.071l-.997-.985a.3.3 0 0 0-.383-.032l-4.346 3.109-1.538-.703L9 14.314a.289.289 0 0 0 .26-.285v-1.235a.29.29 0 0 0-.295-.285H7.494l-2.478-.246a.302.302 0 0 0-.147.023l-1.688.703H0v.571h3.242c.04 0 .08-.008.118-.023l1.674-.711 2.416.24h1.232v.708l-1.088.132-1.58-.163a.294.294 0 0 0-.312.208.283.283 0 0 0 .156.335l3.263 1.457a.302.302 0 0 0 .294-.029l4.278-3.051.588.594-4.916 4.172H8.032L3.34 15.734a.302.302 0 0 0-.103-.02H0v.572h3.186l4.69 1.697A.302.302 0 0 0 7.98 18h1.495a.3.3 0 0 0 .194-.071l5.231-4.44a.28.28 0 0 0 .015-.417zM15.2 7.456L13.772 5.96a.27.27 0 0 0-.174-.084l-2.922-.272H9.56l.054-.817 1.058-.215 1.477.332a.27.27 0 0 0 .093 0l1.436-.171-.064-.545-1.391.15-1.489-.332a.22.22 0 0 0-.11 0l-1.319.272a.272.272 0 0 0-.219.25L9 5.856v.017c0 .15.122.272.271.272h1.38l2.798.256 1.44 1.516a.27.27 0 0 0 .195.084H17v-.544h-1.8zM14.408.984A.285.285 0 0 0 14.3.942L9.404.005a.34.34 0 0 0-.236.044L6 1.923l.34.38L9.4.492l4.706.898L16.649 3 17 2.623 14.408.983z"/>
        <path d="M10.731 2.018a.309.309 0 0 0-.208 0L9 2.634 9.228 3l1.422-.573 1.162.384.188-.382-1.269-.41zM7.253 4.838l-.439-.052c-.199-.024-.316-.086-.316-.186s.174-.2.409-.19h.179c.234 0 .408.1.408.19v.054h.499V4.6c0-.34-.399-.6-.907-.6h-.18C6.4 4 6 4.26 6 4.6c.04.312.357.554.747.572l.431.052c.2.024.316.096.316.186s-.174.19-.408.19h-.18c-.234 0-.408-.1-.408-.19v-.054H6v.054c0 .33.408.59.907.59h.179c.508 0 .907-.26.914-.58-.035-.316-.353-.563-.747-.582z"/>
        <path d="M8.498 4.762a2.01 2.01 0 0 1-3.813.57 1.997 1.997 0 0 1 .986-2.652 2.01 2.01 0 0 1 2.662.982l.454-.21A2.51 2.51 0 0 0 6.509 2 2.504 2.504 0 0 0 4 4.5C4 5.88 5.123 7 6.509 7A2.506 2.506 0 0 0 9 4.83l-.502-.068z"/>
        <path d="M6 4h1v1H6z"/>
    </g>
</svg>
