<svg xmlns="http://www.w3.org/2000/svg" width="30" height="30" viewBox="0 0 30 30">
    <g fill="#505050" fill-rule="nonzero">
        <path d="M17.65.023a.5.5 0 0 0-.44.07l-3.5 2.5A.5.5 0 0 0 13.5 3v3.793L11.293 9H4a2.503 2.503 0 0 0-2.5 2.5v14c.002.543.182 1.07.513 1.5H.5a.5.5 0 0 0-.5.5C0 30 2.635 30 3.5 30h23c.865 0 3.5 0 3.5-2.5a.5.5 0 0 0-.5-.5h-1.513c.33-.43.511-.957.513-1.5v-14A2.503 2.503 0 0 0 26 9h-4.345a.993.993 0 0 0-.155-.207L20.457 7.75l.616-.616a6.435 6.435 0 0 0 3.23.866H30V7h-5.7a5.437 5.437 0 0 1-3.025-.916.5.5 0 0 0-.631.063l-3.25 3.25a.574.574 0 0 1-.793 0 .56.56 0 0 1 0-.793l1.69-1.69A4.094 4.094 0 0 0 19.5 4h-1a3.1 3.1 0 0 1-.35 1.44l-.943-.94a1 1 0 0 0-1.414 0L14.5 5.793V3.258l3.088-2.208 7.762 2.428c.048.015.099.022.15.022H30v-1h-4.424L17.65.023zM26.5 29h-23c-1.662 0-2.265-.385-2.44-1h27.88c-.175.615-.779 1-2.44 1zm1-17.5v14A1.5 1.5 0 0 1 26 27H4a1.5 1.5 0 0 1-1.5-1.5v-14A1.5 1.5 0 0 1 4 10h6.293l-1 1H4a.5.5 0 0 0-.5.5v14a.5.5 0 0 0 .5.5h22a.5.5 0 0 0 .5-.5v-14a.5.5 0 0 0-.5-.5h-5.293l.793-.793a.993.993 0 0 0 .155-.207H26a1.5 1.5 0 0 1 1.5 1.5zm-19 1.707l4.293 4.293a1 1 0 0 0 1.414 0l5.5-5.5H25.5v13h-21V12h3.845a1 1 0 0 0 .155 1.207zm8-8l1.043 1.043-1.647 1.647a1.56 1.56 0 0 0 2.208 2.207l1.646-1.647L20.793 9.5 13.5 16.793 10.707 14l4.147-4.146-.708-.707L10 13.293l-.793-.793L16.5 5.207z"/>
        <path d="M9 16.36L10.36 15l.64.64L9.64 17zM7 18.828L7.828 18 9 19.172 8.172 20zM9 19.339L11.338 17l.662.661L9.662 20zM8 20.828L8.828 20 10 21.172 9.172 22z"/>
    </g>
</svg>
