<svg xmlns="http://www.w3.org/2000/svg" width="12" height="15" viewBox="0 0 12 15">
    <g fill="#F42B17" fill-rule="nonzero">
        <path d="M11.987 5.605a5.995 5.995 0 0 0-1.744-3.85 6.008 6.008 0 0 0-8.486 0 5.995 5.995 0 0 0-.515 7.894l3.43 4.466c.32.416.804.654 1.328.654s1.008-.238 1.328-.654l3.43-4.466a5.995 5.995 0 0 0 1.23-4.044zm-1.686 3.693L6.87 13.764c-.21.272-.526.428-.87.428a1.09 1.09 0 0 1-.87-.428L1.7 9.298a5.435 5.435 0 0 1 .465-7.136A5.407 5.407 0 0 1 6 .577c1.389 0 2.777.528 3.834 1.585a5.435 5.435 0 0 1 .467 7.136z"/>
        <path d="M9.246 3.69a.307.307 0 0 0-.115.404c.298.582.456 1.24.456 1.906 0 2.216-1.713 4.018-3.818 4.018S1.952 8.216 1.952 6c0-2.216 1.712-4.018 3.817-4.018a3.67 3.67 0 0 1 1.901.532c.136.083.31.033.387-.11a.307.307 0 0 0-.104-.407 4.216 4.216 0 0 0-2.184-.612c-2.417 0-4.384 2.07-4.384 4.615 0 2.545 1.967 4.615 4.384 4.615 2.418 0 4.385-2.07 4.385-4.615 0-.764-.181-1.521-.524-2.19a.276.276 0 0 0-.384-.12z"/>
    </g>
</svg>
