<svg xmlns="http://www.w3.org/2000/svg" width="11" height="15" viewBox="0 0 11 15">
    <g fill="#F42B17" fill-rule="nonzero">
        <path d="M10.62 0H6.978a.223.223 0 0 0-.226.22c0 .121.101.22.226.22h3.57v13.505l-1.093.605-1.133-.627a.387.387 0 0 0-.371 0l-1.132.627-1.133-.627a.387.387 0 0 0-.371 0l-1.132.627-1.132-.627a.387.387 0 0 0-.372 0l-1.132.627-1.092-.605v-.96a.223.223 0 0 0-.226-.22.223.223 0 0 0-.225.22v1.003c0 .131.073.254.19.319l1.168.645a.387.387 0 0 0 .371 0l1.132-.626 1.132.626a.384.384 0 0 0 .371 0l1.133-.626 1.132.626a.387.387 0 0 0 .371 0l1.133-.626 1.132.626a.387.387 0 0 0 .371 0l1.168-.645a.366.366 0 0 0 .19-.32V.368A.372.372 0 0 0 10.621 0zM5.59 0H.38a.372.372 0 0 0-.377.367v11.246c0 .122.1.22.225.22a.223.223 0 0 0 .226-.22V.44H5.59a.223.223 0 0 0 .226-.22A.223.223 0 0 0 5.59 0z"/>
        <path d="M3.18 6.279h-.744c-.125 0-.226.111-.226.25 0 .138.101.25.226.25h.743c.125 0 .226-.112.226-.25 0-.139-.101-.25-.226-.25zM8.564 6.279h-4.3c-.124 0-.225.111-.225.25 0 .138.1.25.225.25h4.3c.125 0 .226-.112.226-.25 0-.139-.101-.25-.226-.25zM3.18 7.517h-.744c-.125 0-.226.112-.226.25s.101.25.226.25h.743c.125 0 .226-.112.226-.25s-.101-.25-.226-.25zM8.564 7.517h-4.3c-.124 0-.225.112-.225.25s.1.25.225.25h4.3c.125 0 .226-.112.226-.25s-.101-.25-.226-.25zM3.18 8.755h-.744c-.125 0-.226.112-.226.25 0 .139.101.25.226.25h.743c.125 0 .226-.111.226-.25 0-.138-.101-.25-.226-.25zM8.564 8.755h-4.3c-.124 0-.225.112-.225.25 0 .139.1.25.225.25h4.3c.125 0 .226-.111.226-.25 0-.138-.101-.25-.226-.25zM3.18 9.994h-.744c-.125 0-.226.112-.226.25s.101.25.226.25h.743c.125 0 .226-.112.226-.25s-.101-.25-.226-.25zM8.564 9.994h-4.3c-.124 0-.225.112-.225.25s.1.25.225.25h4.3c.125 0 .226-.112.226-.25s-.101-.25-.226-.25zM3.18 11.232h-.744c-.125 0-.226.112-.226.25 0 .139.101.25.226.25h.743c.125 0 .226-.111.226-.25 0-.138-.101-.25-.226-.25zM8.564 11.232h-4.3c-.124 0-.225.112-.225.25 0 .139.1.25.225.25h4.3c.125 0 .226-.111.226-.25 0-.138-.101-.25-.226-.25zM8.265 2.996H5.216c-.124 0-.225.112-.225.25s.1.25.225.25h3.05c.124 0 .225-.112.225-.25s-.101-.25-.226-.25zM7.487 3.967h-2.27c-.125 0-.226.111-.226.25 0 .138.1.25.225.25h2.27c.125 0 .226-.112.226-.25 0-.139-.1-.25-.225-.25zM7.487 2.084h-2.27c-.125 0-.226.112-.226.25s.1.25.225.25h2.27c.125 0 .226-.112.226-.25s-.1-.25-.225-.25zM3.774 3.09v-.553a.704.704 0 0 1 .112.047c.042.022.082.042.134.042.139 0 .224-.138.224-.237 0-.184-.249-.278-.475-.31a.215.215 0 0 0-.21-.161.214.214 0 0 0-.214.17c-.361.065-.572.3-.572.65 0 .446.306.591.569.681v.714a.396.396 0 0 1-.225-.143c-.038-.043-.09-.102-.178-.102-.128 0-.224.123-.224.234 0 .107.086.227.228.32a.946.946 0 0 0 .4.141c.01.103.103.184.217.184.116 0 .214-.093.214-.203V4.56c.337-.087.527-.343.527-.719 0-.488-.31-.665-.527-.75zm-.426-.16c-.088-.05-.121-.108-.121-.208 0-.047 0-.132.121-.18v.387zm.423 1.141v-.448c.068.054.102.125.102.23 0 .1-.032.17-.102.218z"/>
    </g>
</svg>
