<svg xmlns="http://www.w3.org/2000/svg" width="30" height="27" viewBox="0 0 30 27">
    <g fill="#4A4A4A" fill-rule="nonzero">
        <path d="M29.5 0H.5a.5.5 0 0 0-.5.5v20.004a.5.5 0 0 0 .5.5h16.526a6.497 6.497 0 0 0 12.974-.5V.5a.5.5 0 0 0-.5-.5zm-6 26.005a5.5 5.5 0 0 1-5.5-5.5 5.5 5.5 0 1 1 5.5 5.5zm-6-8.001H4.207L3 16.797v-6.588l1.207-1.207h21.586L27 10.209v4.826a6.484 6.484 0 0 0-9.5 2.969zm11.5-.95a6.54 6.54 0 0 0-1-1.23v-5.822a.5.5 0 0 0-.146-.353l-1.5-1.5A.5.5 0 0 0 26 8.001H4a.5.5 0 0 0-.353.146l-1.5 1.5a.5.5 0 0 0-.147.354v7.002a.5.5 0 0 0 .147.353l1.5 1.5a.5.5 0 0 0 .353.147h13.181c-.078.329-.13.663-.155 1H1V7.001h28v10.053zM29 6H1v-2h28v2zm0-3H1V1h28v2z"/>
        <path d="M15.5 11c-1.933 0-3.5 1.343-3.5 3s1.567 3 3.5 3 3.5-1.343 3.5-3c-.002-1.656-1.568-2.998-3.5-3zm0 5c-1.289 0-2.333-.895-2.333-2s1.044-2 2.333-2c1.289 0 2.333.895 2.333 2s-1.044 2-2.333 2zM23 10h1v1h-1zM24 10h1v1h-1zM3 16h1v1H3zM7 16h1v1H7zM19.964 23.328l6.364-6.364.708.708-6.364 6.364zM21.5 20a1.5 1.5 0 1 0 0-3 1.5 1.5 0 0 0 0 3zm0-2a.5.5 0 1 1 0 1 .5.5 0 0 1 0-1z"/>
        <path d="M24.5 21a1.5 1.5 0 1 0 0 3 1.5 1.5 0 0 0 0-3zm0 2a.5.5 0 1 1 0-1 .5.5 0 0 1 0 1z"/>
    </g>
</svg>
