<svg xmlns="http://www.w3.org/2000/svg" width="16" height="18" viewBox="0 0 16 18">
    <g fill="#BCB6BE" fill-rule="nonzero" opacity=".7">
        <path d="M6.076 4.13V2.735C2.618 3.418 0 6.498 0 10.186c0 4.187 3.374 7.593 7.522 7.593 4.147 0 7.522-3.406 7.522-7.593 0-3.688-2.619-6.768-6.077-7.45V4.13c2.708.659 4.727 3.123 4.727 6.056 0 3.435-2.769 6.23-6.172 6.23-3.403 0-6.172-2.795-6.172-6.23 0-2.933 2.019-5.397 4.726-6.056z"/>
        <path d="M8.1 7.487V.719C8.1.322 7.818 0 7.47 0c-.35 0-.632.322-.632.719v6.768c0 .397.283.719.631.719.349 0 .631-.322.631-.719z"/>
    </g>
</svg>
