<svg xmlns="http://www.w3.org/2000/svg" width="18" height="16" viewBox="0 0 18 16">
    <g fill="#4A4A4A" fill-rule="nonzero" opacity=".7">
        <path d="M16.775 0H.368C.165 0 0 .143 0 .319V15.68c0 .176.165.319.368.319h16.407c.203 0 .368-.143.368-.319V.32c0-.176-.165-.319-.368-.319zm-.368 15.363H.736V.637h15.671v14.726z"/>
        <path d="M4.615 7.385c1.091 0 1.978-.829 1.978-1.847s-.887-1.846-1.978-1.846c-1.09 0-1.978.828-1.978 1.846 0 1.018.888 1.847 1.978 1.847zm0-2.99c.676 0 1.225.513 1.225 1.143s-.55 1.143-1.225 1.143-1.224-.512-1.224-1.143c0-.63.55-1.142 1.224-1.142zM8.24 6.154h5.937c.182 0 .328-.276.328-.616 0-.34-.146-.615-.328-.615H8.24c-.181 0-.328.276-.328.615 0 .34.147.616.328.616zM4.514 12.308c.913 0 1.675-.644 1.842-1.495h7.792a.355.355 0 0 0 .357-.351.355.355 0 0 0-.357-.352H6.356a1.872 1.872 0 0 0-1.842-1.495c-1.035 0-1.877.829-1.877 1.847s.842 1.846 1.877 1.846zm0-2.99c.64 0 1.162.513 1.162 1.144 0 .63-.521 1.142-1.162 1.142-.64 0-1.162-.512-1.162-1.142 0-.63.522-1.143 1.162-1.143z"/>
    </g>
</svg>
