<svg xmlns="http://www.w3.org/2000/svg" width="20" height="16" viewBox="0 0 20 16">
    <g fill="#4A4A4A" fill-rule="nonzero" opacity=".7">
        <path d="M18.358 1.48C17.299.524 15.89 0 14.394 0c-1.498 0-2.905.525-3.964 1.48l-.43.386-.43-.387C7.384-.49 3.828-.49 1.642 1.48.583 2.433 0 3.701 0 5.05 0 6.4.583 7.667 1.642 8.621l8.075 7.275a.436.436 0 0 0 .566 0l3.853-3.471c.366-.33-.2-.84-.566-.51L10 15.13 2.208 8.11C1.3 7.294.801 6.207.801 5.051c0-1.157.5-2.244 1.407-3.062C3.116 1.172 4.322.721 5.606.721c1.284 0 2.49.45 3.398 1.268l.713.643c.156.14.41.14.566 0l.713-.643c.908-.817 2.114-1.268 3.398-1.268 1.283 0 2.49.45 3.398 1.268.907.818 1.407 1.905 1.407 3.061 0 1.157-.5 2.244-1.407 3.061l-1.957 1.763c-.365.329.201.839.567.51l1.956-1.763C19.417 7.667 20 6.4 20 5.051c0-1.35-.583-2.618-1.642-3.572-1.059-.954 1.059.954 0 0z"/>
        <path d="M14.616 10.182c-.418 0-.77.332-.77.727 0 .396.352.727.77.727.406 0 .75-.312.768-.695.02-.407-.336-.76-.768-.76z"/>
    </g>
</svg>
