<svg xmlns="http://www.w3.org/2000/svg" width="22" height="23" viewBox="0 0 22 23">
    <path fill="#F42B17" fill-rule="nonzero" d="M6.096 15.13h12.661a2.612 2.612 0 0 0 2.607-2.607V7.196v-.019-.038c0-.009 0-.018-.004-.028 0-.01-.005-.024-.005-.033 0-.01-.005-.019-.005-.028-.004-.01-.004-.02-.01-.033-.004-.01-.004-.02-.009-.029-.004-.01-.004-.019-.01-.028-.004-.01-.009-.019-.013-.033a.103.103 0 0 0-.014-.024l-.015-.028c-.004-.01-.009-.014-.014-.024-.004-.01-.014-.019-.019-.028a.083.083 0 0 0-.019-.024c-.004-.01-.014-.014-.018-.023-.005-.01-.015-.014-.02-.024-.004-.01-.013-.014-.018-.019l-.024-.023c-.01-.005-.014-.015-.023-.02-.01-.004-.02-.013-.029-.018-.01-.005-.014-.01-.023-.014a.099.099 0 0 1-.029-.02l-.028-.013-.028-.015-.029-.014c-.01-.004-.019-.004-.028-.01a.088.088 0 0 0-.033-.009c-.01 0-.019-.004-.024-.004-.014-.005-.023-.005-.038-.005-.004 0-.009-.005-.018-.005L4.769 4.348V2.11c0-.024 0-.048-.005-.066 0-.005 0-.01-.005-.02 0-.014-.005-.028-.005-.042-.004-.014-.004-.024-.01-.038 0-.01-.004-.014-.004-.023l-.014-.043c0-.005-.005-.014-.005-.019a.141.141 0 0 0-.019-.037c-.004-.005-.004-.015-.009-.02-.005-.009-.01-.018-.019-.028-.005-.01-.01-.014-.014-.023-.005-.01-.01-.014-.014-.024-.005-.01-.014-.019-.02-.028l-.013-.014-.029-.029-.014-.014c-.01-.01-.019-.019-.033-.028-.005-.005-.014-.01-.019-.014-.01-.01-.019-.015-.028-.024a.436.436 0 0 0-.038-.024c-.005-.004-.01-.004-.014-.01l-.061-.027L.896.05A.637.637 0 0 0 .06.39a.637.637 0 0 0 .34.836L3.489 2.53V16.5a2.61 2.61 0 0 0 2.271 2.583c-.231.388-.368.841-.368 1.323a2.577 2.577 0 0 0 2.574 2.574 2.58 2.58 0 0 0 2.574-2.574c0-.473-.128-.921-.354-1.299h5.733a2.538 2.538 0 0 0-.354 1.299 2.577 2.577 0 0 0 2.574 2.574 2.58 2.58 0 0 0 2.574-2.574 2.58 2.58 0 0 0-2.574-2.574H6.096c-.737 0-1.332-.6-1.332-1.332v-1.729c.387.227.845.36 1.332.36zm3.173 5.271c0 .718-.585 1.299-1.298 1.299a1.304 1.304 0 0 1-1.3-1.299c0-.713.586-1.299 1.3-1.299.713 0 1.298.581 1.298 1.299zm10.173 0c0 .718-.585 1.299-1.298 1.299a1.304 1.304 0 0 1-1.3-1.299c0-.713.586-1.299 1.3-1.299.713 0 1.298.581 1.298 1.299zm-.685-6.546H6.096c-.737 0-1.332-.6-1.332-1.332v-6.89l15.325 2.11v4.776c0 .741-.6 1.336-1.332 1.336z"/>
</svg>
