<svg xmlns="http://www.w3.org/2000/svg" width="28" height="30" viewBox="0 0 28 30">
    <g fill-rule="nonzero">
        <path d="M1.576 10a.622.622 0 0 1-.492-.234.552.552 0 0 1 .13-.801A5.479 5.479 0 0 1 4.344 8c1.135 0 2.218.333 3.131.965.272.187.33.546.13.801-.199.255-.58.31-.852.123a4.216 4.216 0 0 0-2.408-.742c-.873 0-1.706.256-2.409.742a.633.633 0 0 1-.36.111z"/>
        <path d="M6.1 12a.628.628 0 0 1-.383-.132 2.244 2.244 0 0 0-2.744 0 .633.633 0 0 1-.918-.16.73.73 0 0 1 .15-.977 3.5 3.5 0 0 1 4.28 0 .73.73 0 0 1 .15.977A.646.646 0 0 1 6.1 12zM4.345 22c-1.331 0-2.414-1.122-2.414-2.5 0-1.379 1.083-2.5 2.414-2.5 1.33 0 2.414 1.121 2.414 2.5 0 1.378-1.083 2.5-2.414 2.5zm0-3.89c-.74 0-1.342.624-1.342 1.39 0 .766.602 1.39 1.342 1.39.74 0 1.341-.624 1.341-1.39 0-.766-.602-1.39-1.341-1.39zM4.345 28c-1.331 0-2.414-1.122-2.414-2.5 0-1.379 1.083-2.5 2.414-2.5 1.33 0 2.414 1.121 2.414 2.5 0 1.378-1.083 2.5-2.414 2.5zm0-3.89c-.74 0-1.342.624-1.342 1.39 0 .766.602 1.39 1.342 1.39.74 0 1.341-.624 1.341-1.39 0-.766-.602-1.39-1.341-1.39z"/>
        <path d="M7.194 13.895h-1.39v-.252c0-.906-.654-1.643-1.46-1.643-.804 0-1.459.737-1.459 1.643v.252h-1.39C.672 13.895 0 14.65 0 15.579v12.737C0 29.245.67 30 1.496 30h5.698c.825 0 1.496-.755 1.496-1.684V15.579c0-.929-.671-1.684-1.496-1.684zm-3.246-.252c0-.246.178-.446.397-.446.218 0 .397.2.397.446v.252h-.794v-.252zm3.679 14.673c0 .268-.194.487-.433.487H1.496c-.24 0-.433-.219-.433-.487V15.579c0-.27.194-.488.433-.488h5.698c.239 0 .433.219.433.488v12.737zM26.069 16a.921.921 0 0 1-.536-.168.973.973 0 0 1-.355-.449 1.08 1.08 0 0 1-.075-.383c0-.263.104-.521.283-.707a.942.942 0 0 1 .495-.273.917.917 0 0 1 .558.057.965.965 0 0 1 .313.216 1.021 1.021 0 0 1 .12 1.262.997.997 0 0 1-.433.37.945.945 0 0 1-.37.076z"/>
        <path d="M28 8.284c0-1.064-.832-1.93-1.855-1.93h-1.622V2.061C24.523.925 23.634 0 22.543 0 21.45 0 20.56.925 20.56 2.062v4.291h-3.467V2.062C17.094.925 16.205 0 15.113 0s-1.98.925-1.98 2.062v4.291H11.51c-1.023 0-1.855.867-1.855 1.931 0 .875.562 1.616 1.33 1.852v8.73c0 1.243.528 2.399 1.449 3.17.46.386.964.702 1.505.942v.207c0 1.247.951 2.267 2.138 2.316v3.912c0 .324.253.587.564.587h4.373a.576.576 0 0 0 .564-.587V25.5c1.187-.049 2.138-1.069 2.138-2.316v-.207a6.337 6.337 0 0 0 1.505-.941c.921-.772 1.45-1.928 1.45-3.172V17.54a.576.576 0 0 0-.565-.588.576.576 0 0 0-.564.588v1.326c0 .886-.375 1.709-1.029 2.257a5.212 5.212 0 0 1-1.594.92h-8.182a5.206 5.206 0 0 1-1.595-.92 2.926 2.926 0 0 1-1.028-2.257v-8.65h13.428v1.457c0 .324.252.587.564.587a.576.576 0 0 0 .564-.587v-1.536C27.438 9.9 28 9.16 28 8.284zm-7.55 20.541h-3.244v-3.322h3.244v3.322zm2.137-5.609c-.016.616-.502 1.112-1.098 1.112h-5.323c-.595 0-1.082-.496-1.097-1.112h7.518zM21.69 2.062c0-.49.383-.887.852-.887.47 0 .852.398.852.887v4.291H21.69V2.062zm-7.429 0c0-.49.382-.887.852-.887s.852.398.852.887v4.291H14.26V2.062zM26.145 9.04H11.51c-.4 0-.726-.339-.726-.756 0-.416.326-.756.726-.756h14.635c.4 0 .726.34.726.756 0 .417-.326.756-.726.756z"/>
        <path d="M19.31 16c-.533 0-.965-.294-.965-.656v-1.688c0-.362.432-.656.965-.656.534 0 .966.294.966.656v1.688c0 .362-.432.656-.966.656z"/>
        <path d="M19.503 19c-1.49 0-2.703-1.054-2.703-2.35 0-.541.217-1.07.61-1.488a.562.562 0 0 1 .716-.062c.217.154.249.433.071.622-.249.264-.38.585-.38.928 0 .808.756 1.466 1.686 1.466.93 0 1.687-.658 1.687-1.466 0-.343-.131-.664-.38-.928-.178-.19-.146-.468.071-.622a.562.562 0 0 1 .715.062c.394.418.61.947.61 1.488 0 1.296-1.212 2.35-2.703 2.35z"/>
    </g>
</svg>
