<svg xmlns="http://www.w3.org/2000/svg" width="31" height="27" viewBox="0 0 31 27">
    <g fill="#000" fill-rule="nonzero">
        <path d="M30.395 1H11.12a.604.604 0 0 0-.606.602c0 .332.271.602.606.602h18.668v23.592H1.211V2.204h5.066c.334 0 .605-.27.605-.602A.604.604 0 0 0 6.277 1H.605A.604.604 0 0 0 0 1.602v24.796c0 .333.271.602.605.602h29.79c.334 0 .605-.27.605-.602V1.602A.604.604 0 0 0 30.395 1z"/>
        <path d="M27.51 4H3.49a.59.59 0 0 0-.584.597v19.806c0 .33.261.597.583.597h24.022a.59.59 0 0 0 .583-.597V4.597A.59.59 0 0 0 27.51 4zm-.582 14.397a7.788 7.788 0 0 1-4.82 2.178 1.8 1.8 0 0 0-.428-.719 14.632 14.632 0 0 0 1.047-5.322c.546-.228.955-.73 1.062-1.34a8.95 8.95 0 0 0 3.139-1.541v6.744zm-22.856-1.05v-6.744a7.808 7.808 0 0 1 5.527-2.2c.177.796.874 1.392 1.704 1.392.044 0 .087-.003.13-.006a13.65 13.65 0 0 1 .788 5.19c-.413.101-.77.353-1.012.695a8.864 8.864 0 0 0-7.137 1.673zM17.938 5.193a13.282 13.282 0 0 1 3.274 6.124c-.35.202-.625.522-.773.908a7.851 7.851 0 0 1-4.527-2.296 9 9 0 0 0-2.86-1.98c-.03-.96-.802-1.734-1.749-1.734-.12 0-.238.013-.353.037a14.52 14.52 0 0 0-.779-1.059h7.767zm2.688 14.148a1.74 1.74 0 0 0-1.664.829 7.896 7.896 0 0 1-3.05-1.942 9.16 9.16 0 0 0-1.55-1.273 1.796 1.796 0 0 0-.98-1.85 14.867 14.867 0 0 0-.88-5.798c.069-.067.133-.14.19-.216a7.85 7.85 0 0 1 2.396 1.681 9.006 9.006 0 0 0 5.315 2.651c.175.557.61.996 1.157 1.166a13.423 13.423 0 0 1-.934 4.752zm-7.998-2.025a.59.59 0 0 1-.583-.597.59.59 0 0 1 .583-.596.59.59 0 0 1 .583.596.59.59 0 0 1-.583.597zm-1.325-9.908a.59.59 0 0 1 .583.597.59.59 0 0 1-.583.596.59.59 0 0 1-.583-.596.59.59 0 0 1 .583-.597zm10.765 6.065a.59.59 0 0 1-.583-.596.59.59 0 0 1 .583-.597.59.59 0 0 1 .583.597.59.59 0 0 1-.583.596zm-9.25 5.025a1.726 1.726 0 0 0 1.009-.477c.452.304.875.655 1.26 1.05a9.059 9.059 0 0 0 3.62 2.27c.04.326.165.626.353.874-.39.542-.822 1.059-1.29 1.538a.603.603 0 0 0-.046.054H9.982a14.54 14.54 0 0 0 2.836-5.309zm7.042 2.623a.59.59 0 0 1 .583-.597.59.59 0 0 1 .583.597.59.59 0 0 1-.583.596.59.59 0 0 1-.583-.596zm7.068-11.024a7.837 7.837 0 0 1-3.33 1.914 1.755 1.755 0 0 0-1.235-.898 14.5 14.5 0 0 0-2.863-5.92h7.428v4.904zM8.608 5.193c.493.523.944 1.085 1.344 1.677-.085.105-.157.22-.216.343a8.935 8.935 0 0 0-5.664 1.836V5.193H8.61zm-4.536 13.71c1.832-1.768 4.336-2.528 6.81-2.077.034.585.344 1.096.799 1.396a13.321 13.321 0 0 1-3.239 5.53.603.603 0 0 0-.046.055H4.072v-4.905zm15.239 4.904c.257-.305.501-.62.732-.944.128.03.262.048.4.048.74 0 1.373-.473 1.628-1.138a8.904 8.904 0 0 0 4.857-1.82v3.854H19.31zM8.719 2a.96.96 0 0 0 .684-.293 1.025 1.025 0 0 0 0-1.414A.96.96 0 0 0 8.72 0a.96.96 0 0 0-.685.293 1.02 1.02 0 0 0 0 1.414.96.96 0 0 0 .685.293z"/>
    </g>
</svg>
