<svg xmlns="http://www.w3.org/2000/svg" width="65" height="67" viewBox="0 0 65 67">
    <g fill="#FFF" fill-rule="nonzero">
        <path d="M3.444 22c-.443 0-.881-.162-1.164-.468-.472-.51-.334-1.228.309-1.603C4.75 18.667 7.314 18 9.999 18c2.687 0 5.25.667 7.412 1.93.643.374.78 1.092.309 1.602-.472.51-1.375.62-2.018.245-1.664-.97-3.635-1.484-5.702-1.484s-4.038.514-5.702 1.484c-.258.15-.557.223-.854.223z"/>
        <path d="M14.363 26a1.82 1.82 0 0 1-.953-.263c-.997-.613-2.176-.937-3.41-.937s-2.412.324-3.41.937c-.733.451-1.755.307-2.283-.32-.527-.63-.359-1.504.375-1.955C6.239 22.505 8.078 22 10 22c1.922 0 3.761.505 5.318 1.462.734.451.902 1.326.375 1.954-.32.381-.822.584-1.33.584zM10 50c-3.309 0-6-2.692-6-6 0-3.309 2.691-6 6-6s6 2.691 6 6c0 3.308-2.692 6-6 6zm0-9.335A3.338 3.338 0 0 0 6.665 44 3.338 3.338 0 0 0 10 47.335 3.339 3.339 0 0 0 13.335 44 3.338 3.338 0 0 0 10 40.665zM10 62c-3.309 0-6-2.468-6-5.5 0-3.033 2.691-5.5 6-5.5s6 2.467 6 5.5c0 3.032-2.692 5.5-6 5.5zm0-8.557c-1.839 0-3.335 1.371-3.335 3.057 0 1.685 1.496 3.057 3.335 3.057 1.838 0 3.335-1.372 3.335-3.057 0-1.686-1.497-3.057-3.335-3.057z"/>
        <path d="M16.558 31.21H13.36v-.558C13.36 28.638 11.852 27 10 27s-3.359 1.638-3.359 3.652v.558H3.442C1.544 31.21 0 32.889 0 34.953v28.304C0 65.321 1.544 67 3.442 67h13.116C18.456 67 20 65.321 20 63.257V34.953c0-2.064-1.544-3.743-3.442-3.743zm-7.471-.558c0-.547.41-.993.913-.993.503 0 .913.446.913.993v.558H9.087v-.558zm8.467 32.605c0 .597-.447 1.083-.996 1.083H3.442c-.549 0-.996-.486-.996-1.083V34.953c0-.598.447-1.083.996-1.083h13.116c.549 0 .996.485.996 1.083v28.304zM61 35a1.974 1.974 0 0 1-1.11-.336 1.998 1.998 0 0 1-.85-1.272 2.02 2.02 0 0 1-.04-.393 2.015 2.015 0 0 1 .89-1.662 2.007 2.007 0 0 1 .72-.298 1.966 1.966 0 0 1 1.156.114 2.022 2.022 0 0 1 .648.433 2.005 2.005 0 0 1 .25 2.524A2.007 2.007 0 0 1 61 35z"/>
        <path d="M65 18.502c0-2.378-1.95-4.313-4.348-4.313H56.85V4.605C56.85 2.065 54.767 0 52.207 0c-2.56 0-4.643 2.065-4.643 4.605v9.584h-8.128V4.605c0-2.54-2.083-4.605-4.643-4.605-2.56 0-4.643 2.065-4.643 4.605v9.584h-3.802c-2.397 0-4.348 1.935-4.348 4.313 0 1.953 1.317 3.608 3.117 4.135v19.496a9.015 9.015 0 0 0 3.396 7.082 14.989 14.989 0 0 0 3.529 2.102v.463c0 2.785 2.229 5.063 5.01 5.172v8.736c0 .725.593 1.312 1.323 1.312h10.25c.73 0 1.323-.587 1.323-1.312v-8.736c2.781-.11 5.01-2.387 5.01-5.172v-.463a14.986 14.986 0 0 0 3.529-2.102 9.016 9.016 0 0 0 3.396-7.082V39.17c0-.725-.592-1.312-1.322-1.312-.731 0-1.323.587-1.323 1.312v2.963a6.41 6.41 0 0 1-2.411 5.04 12.374 12.374 0 0 1-3.633 2.01c-.036.013-.07.027-.105.042H33.911a1.227 1.227 0 0 0-.105-.041 12.358 12.358 0 0 1-3.633-2.012 6.41 6.41 0 0 1-2.41-5.04V22.815h31.475v3.253c0 .724.592 1.312 1.323 1.312.73 0 1.322-.588 1.322-1.312v-3.43c1.8-.527 3.117-2.182 3.117-4.135zM47.302 64.376h-7.604v-7.42h7.604v7.42zm5.01-12.527a2.567 2.567 0 0 1-2.573 2.483H37.261a2.567 2.567 0 0 1-2.572-2.483h17.623zM50.21 4.605c0-1.092.896-1.981 1.997-1.981s1.998.889 1.998 1.98v9.585H50.21V4.605h-.001zm-17.414 0c0-1.092.896-1.981 1.997-1.981 1.1 0 1.997.889 1.997 1.98v9.585h-3.994V4.605zM60.652 20.19H26.348a1.697 1.697 0 0 1-1.702-1.688c0-.931.764-1.689 1.702-1.689h34.304c.939 0 1.702.758 1.702 1.689 0 .93-.764 1.688-1.702 1.688z"/>
        <path d="M45 35c-1.104 0-2-.588-2-1.313v-3.374c0-.725.896-1.313 2-1.313 1.105 0 2 .588 2 1.313v3.374c0 .725-.895 1.313-2 1.313z"/>
        <path d="M45.5 42c-3.584 0-6.5-2.372-6.5-5.288 0-1.218.522-2.407 1.468-3.348.428-.424 1.198-.487 1.72-.139s.599.974.171 1.399c-.599.595-.915 1.317-.915 2.088 0 1.82 1.82 3.3 4.056 3.3 2.237 0 4.056-1.48 4.056-3.3 0-.771-.317-1.493-.915-2.088-.428-.425-.35-1.051.171-1.399.523-.348 1.292-.285 1.72.14.946.94 1.468 2.13 1.468 3.347C52 39.628 49.084 42 45.5 42z"/>
    </g>
</svg>
