<?xml version="1.0" encoding="UTF-8"?>
<svg width="31px" height="32px" viewBox="0 0 31 32" version="1.1" xmlns="http://www.w3.org/2000/svg" xmlns:xlink="http://www.w3.org/1999/xlink">
    <!-- Generator: Sketch 51.3 (57544) - http://www.bohemiancoding.com/sketch -->
    <title>shock-absorber copy</title>
    <desc>Created with Sketch.</desc>
    <defs></defs>
        <path d="M19.3028586,18.0451057 L15.5346284,10.3183672 C15.3861252,10.0139238 15.0573964,9.90959963 14.8001771,10.0854041 C14.5430116,10.2611448 14.4548882,10.6504352 14.6033914,10.9548786 L18.3716216,18.681617 C18.471251,18.8858099 18.6519067,19 18.8377777,19 C18.9289658,19 19.0214443,18.9724391 19.1060729,18.9145802 C19.3632384,18.7387757 19.4513618,18.3495491 19.3028586,18.0451057 Z" id="Shape"></path>
        <path d="M17.3653594,20.0451027 L13.5971173,12.3183399 C13.4486694,12.0138956 13.1198905,11.9096347 12.8626741,12.085376 C12.6055114,12.2611174 12.517389,12.6504089 12.6658906,12.9548533 L16.4341327,20.681616 C16.5337611,20.8858095 16.7144147,21 16.9002837,21 C16.9914708,21 17.0839483,20.972439 17.1685759,20.9145799 C17.4257386,20.7387749 17.513861,20.349547 17.3653594,20.0451027 Z" id="Shape"></path>
        <path d="M15.4278594,22.0451042 L11.6596173,14.3183538 C11.5111157,14.0139736 11.1823905,13.9095856 10.9251741,14.0853903 C10.6680114,14.2611314 10.579889,14.6504223 10.7283906,14.9548661 L14.4966327,22.6816165 C14.5962611,22.8858097 14.7769147,23 14.9627837,23 C15.0539708,23 15.1464483,22.972439 15.2310759,22.91458 C15.4882386,22.7387753 15.576361,22.3495481 15.4278594,22.0451042 Z" id="Shape"></path>
        <path d="M13.4903586,24.045111 L9.72212844,16.3183516 C9.57362517,16.0139735 9.24500388,15.9095862 8.98767708,16.0853897 C8.73051157,16.2611295 8.64238816,16.6504177 8.79089142,16.9548594 L12.5591216,24.6816188 C12.658751,24.8858105 12.8394067,25 13.0252777,25 C13.1164658,25 13.2088906,24.9724392 13.2935729,24.9145807 C13.5507384,24.7387772 13.6388618,24.3495527 13.4903586,24.045111 Z" id="Shape"></path>
        <path d="M11.5528594,26.0451042 L7.7846173,18.3183538 C7.63616944,18.0139736 7.30739051,17.9095856 7.05017409,18.0853903 C6.79301143,18.261195 6.704889,18.6504223 6.85339062,18.9548661 L10.6216327,26.6816165 C10.7212611,26.8858097 10.9019147,27 11.0877837,27 C11.1789708,27 11.2714483,26.972439 11.3560759,26.91458 C11.6132386,26.7387753 11.701361,26.3495481 11.5528594,26.0451042 Z" id="Shape"></path>
        <path d="M10.5387068,27.9894611 L6.41456714,20.6853858 C6.25203772,20.3976584 5.89226045,20.2989815 5.6107468,20.4651678 C5.32929199,20.6313541 5.23284532,20.9992866 5.39537473,21.2870741 L6.27116229,22.8381665 L2.58262916,26.6381112 C2.35284011,26.8730705 2.35284011,27.2540595 2.58262916,27.489079 C2.69755311,27.6065286 2.84813702,27.6653135 2.99872093,27.6653135 C3.14930485,27.6653135 3.29988876,27.6065286 3.41481271,27.489079 L6.88038279,23.9171742 L7.60517452,25.200756 L4.97551689,27.8894605 C4.86165215,27.6903017 4.72248413,27.5045003 4.55871898,27.3370504 C3.52552151,26.280606 1.84426595,26.2804255 0.810891946,27.3371106 C-0.222364373,28.3936753 -0.222364373,30.1127591 0.810891946,31.1692035 C1.31148489,31.6809996 1.97701988,31.9628906 2.68486431,31.9628906 C3.39270873,31.9628906 4.05824373,31.6809996 4.55877783,31.1692637 C5.05931192,30.6575278 5.33494109,29.9770182 5.33494109,29.2531872 C5.33509801,29.2333314 6.29489637,28.2421702 8.21433617,26.2797035 L9.51951444,28.5911495 C9.6285539,28.7841711 9.82627252,28.892114 10.0296991,28.892114 C10.1294999,28.892114 10.230713,28.8660609 10.3233348,28.8113674 C10.6047896,28.6451811 10.7012363,28.2772487 10.5387068,27.9894611 Z M3.72653544,30.3182959 C3.44831709,30.6028343 3.07835967,30.7595139 2.68486431,30.7595139 C2.29136895,30.7595139 1.92135268,30.6028343 1.64313433,30.3182959 C1.06869113,29.7309879 1.06874998,28.7753263 1.64313433,28.1880183 C1.93035594,27.8943342 2.30755128,27.7475222 2.68486431,27.7475222 C3.06205965,27.7475222 3.43937268,27.8943944 3.72653544,28.1880183 C4.00481262,28.4725567 4.15804455,28.8508382 4.15804455,29.2531872 C4.15804455,29.6555362 4.00487147,30.0337574 3.72653544,30.3182959 Z" id="Shape"></path>
        <path d="M29.0897939,1.97337107 C28.4450284,1.30788428 27.5878447,0.94140625 26.6760309,0.94140625 C25.764217,0.94140625 24.9070333,1.30788428 24.2622678,1.97337107 L21.622121,4.69836628 C21.3929792,4.9348721 21.3929792,5.31836886 21.622121,5.55487468 C21.8513214,5.79144106 22.2227598,5.79144106 22.4520189,5.55487468 L25.0921657,2.82987947 C25.5151831,2.39320675 26.0776805,2.15270365 26.6760309,2.15270365 C27.2743812,2.15270365 27.8368787,2.39320675 28.2599547,2.82987947 C29.1333338,3.731327 29.1333338,5.19808703 28.2599547,6.09953455 L22.64032,11.899711 L18.8758824,8.01429293 C18.5709273,7.69947673 18.165455,7.52614007 17.7341053,7.52614007 C17.3027555,7.52614007 16.8972832,7.69947673 16.5923281,8.01429293 C15.9627605,8.66409342 15.9627605,9.72143492 16.5923281,10.371296 L20.9534144,14.8725377 C21.2682276,15.1974077 21.6816802,15.3598426 22.0951915,15.3598426 C22.5087028,15.3598426 22.9222142,15.1974077 23.2369686,14.8724771 C23.7866154,14.3051054 23.8562674,13.4272176 23.4461595,12.781051 L29.0897939,6.95604295 C30.4207523,5.58231056 30.4207523,3.34710346 29.0897939,1.97337107 Z M22.4071294,14.0159082 C22.2351997,14.1934844 21.955242,14.1934844 21.7833123,14.0159082 L17.4222261,9.51466646 C17.2501791,9.33709026 17.2501791,9.04825639 17.4222261,8.87074076 C17.5055503,8.78473864 17.6163364,8.73737691 17.7341053,8.73737691 C17.8518741,8.73737691 17.9627189,8.78473864 18.0459844,8.87074076 L22.4070707,13.3719825 C22.5791177,13.5495587 22.5791177,13.8383925 22.4071294,14.0159082 Z" id="Shape"></path>
        <path d="M21.032287,6.28924855 C20.658574,5.90358382 20.0529408,5.90358382 19.6791322,6.28924855 L19.655213,6.31393899 C19.2815957,6.69960372 19.2815957,7.32496327 19.655213,7.71072676 C19.8421652,7.90360851 20.0870017,8 20.3318383,8 C20.5767705,8 20.8215114,7.90360851 21.0083678,7.71072676 L21.032287,7.68603632 C21.4059043,7.30037159 21.4059043,6.67501204 21.032287,6.28924855 Z" id="Shape"></path>
        <path d="M27.7182863,3.38678635 C27.0992813,2.74781344 26.0919918,2.74781344 25.4730445,3.38678635 C24.8540395,4.02575925 24.8540395,5.06548234 25.4730445,5.70445524 C25.7728832,6.01402567 26.1715526,6.18447403 26.5956654,6.18447403 C27.0196628,6.18441448 27.4183899,6.01396612 27.7182863,5.70445524 C28.0181249,5.39488481 28.1833045,4.98335505 28.1833045,4.54562079 C28.1833045,4.10782698 28.0181826,3.69629722 27.7182863,3.38678635 Z M26.9022543,4.86215924 C26.820328,4.94672831 26.7114007,4.99330085 26.5956077,4.99330085 C26.4798147,4.99330085 26.3708297,4.94672831 26.2889611,4.86215924 C26.119916,4.68766109 26.119916,4.40358049 26.2889611,4.22902279 C26.3734836,4.14171416 26.4846034,4.09805985 26.5956077,4.09805985 C26.7066121,4.09805985 26.8177895,4.14171416 26.9022543,4.22902279 C26.9842383,4.31359186 27.0292978,4.42603299 27.0292978,4.54562079 C27.0292978,4.6652086 26.9842383,4.77764973 26.9022543,4.86215924 Z" id="Shape"></path>
</svg>