<svg xmlns="http://www.w3.org/2000/svg" width="79" height="67" viewBox="0 0 79 67">
    <g fill="#FFF" fill-rule="nonzero">
        <path d="M77.457 2H28.339c-.852 0-1.543.674-1.543 1.505 0 .83.691 1.504 1.543 1.504h47.575v58.982H3.086V5.009h12.91c.851 0 1.543-.673 1.543-1.504S16.847 2 15.996 2H1.543C.691 2 0 2.674 0 3.505v61.99C0 66.326.69 67 1.543 67h75.914c.852 0 1.543-.674 1.543-1.505V3.505C79 2.674 78.31 2 77.457 2z"/>
        <path d="M69.519 10H8.48A1.48 1.48 0 0 0 7 11.477v49.046A1.48 1.48 0 0 0 8.481 62H69.52A1.48 1.48 0 0 0 71 60.523V46.276 11.477A1.48 1.48 0 0 0 69.519 10zM68 45.63c-3.273 3.142-7.464 5.025-11.938 5.37A4.434 4.434 0 0 0 55 49.228a35.936 35.936 0 0 0 2.594-13.123 4.41 4.41 0 0 0 2.632-3.304A22.213 22.213 0 0 0 68 29v16.63zM10 43V26.413c3.849-3.545 8.945-5.478 14.22-5.411.456 1.957 2.249 3.423 4.387 3.423.112 0 .222-.006.332-.014a32.221 32.221 0 0 1 2.029 12.765 4.52 4.52 0 0 0-2.603 1.71C21.846 37.66 15.232 39.172 10 43zm34.698-30c4.094 4.141 6.948 9.234 8.302 14.804A4.387 4.387 0 0 0 51.042 30c-4.33-.574-8.376-2.523-11.482-5.552a22.886 22.886 0 0 0-7.256-4.785c-.073-2.324-2.033-4.193-4.433-4.193-.306 0-.606.03-.895.089A35.252 35.252 0 0 0 25 13h19.698zm6.93 34.98A4.46 4.46 0 0 0 47.403 50a20.17 20.17 0 0 1-7.745-4.732 23.086 23.086 0 0 0-3.936-3.101 4.3 4.3 0 0 0 .039-.575c0-1.733-1.033-3.232-2.526-3.936.24-4.799-.527-9.646-2.236-14.13a4.43 4.43 0 0 0 .485-.526 19.958 19.958 0 0 1 6.081 4.098c3.64 3.575 8.406 5.85 13.495 6.461A4.423 4.423 0 0 0 54 36.401c-.06 4-.856 7.888-2.373 11.58zM31.5 43c-.827 0-1.5-.673-1.5-1.5s.673-1.5 1.5-1.5 1.5.673 1.5 1.5-.673 1.5-1.5 1.5zm-3-25c.827 0 1.5.673 1.5 1.5s-.673 1.5-1.5 1.5-1.5-.673-1.5-1.5.673-1.5 1.5-1.5zm27 16c-.827 0-1.5-.673-1.5-1.5s.673-1.5 1.5-1.5 1.5.673 1.5 1.5-.673 1.5-1.5 1.5zM32.185 46.154A4.461 4.461 0 0 0 34.74 45a20.097 20.097 0 0 1 3.195 2.542 23.13 23.13 0 0 0 9.17 5.49c.1.79.418 1.516.895 2.117a32.748 32.748 0 0 1-3.268 3.72 1.48 1.48 0 0 0-.118.131H25a34.704 34.704 0 0 0 7.185-12.846zM50 52.5c0-.827.673-1.5 1.5-1.5s1.5.673 1.5 1.5-.673 1.5-1.5 1.5-1.5-.673-1.5-1.5zm18-27.272A20.178 20.178 0 0 1 59.484 30a4.484 4.484 0 0 0-3.16-2.24A35.783 35.783 0 0 0 49 13h19v12.228zM21.574 13A34.409 34.409 0 0 1 25 17.35c-.215.27-.4.569-.551.887C19.229 18.095 14.148 19.785 10 23V13h11.574zM10 46.58c4.573-4.475 10.829-6.4 17.007-5.257A4.566 4.566 0 0 0 29 44.858c-1.531 5.261-4.315 10.091-8.087 14.005-.042.044-.08.09-.116.137H10V46.58zM49 60a37.282 37.282 0 0 0 1.825-2.45c.321.08.655.124 1 .124 1.844 0 3.424-1.225 4.06-2.951C60.304 54.432 64.492 52.789 68 50v10H49zM22.5 5c.657 0 1.302-.268 1.767-.732A2.52 2.52 0 0 0 25 2.5c0-.657-.268-1.303-.733-1.768A2.518 2.518 0 0 0 22.5 0c-.66 0-1.303.268-1.768.732A2.507 2.507 0 0 0 20 2.5c0 .657.265 1.303.732 1.768A2.515 2.515 0 0 0 22.5 5z"/>
    </g>
</svg>
