<svg xmlns="http://www.w3.org/2000/svg" width="80" height="80" viewBox="0 0 80 80">
    <g fill="#FFF" fill-rule="nonzero">
        <path d="M50.969 42.282L40.837 23.115c-.399-.755-1.283-1.014-1.974-.578-.692.436-.929 1.402-.53 2.157l10.132 19.167c.268.507.754.79 1.253.79.246 0 .494-.068.722-.212.691-.436.928-1.401.529-2.157zM45.387 47.864L35.256 28.697c-.4-.756-1.283-1.014-1.975-.578-.691.436-.928 1.401-.529 2.157l10.132 19.167c.268.506.753.79 1.253.79.245 0 .494-.069.721-.212.692-.436.929-1.402.53-2.157zM40.736 53.445L30.605 34.278c-.4-.755-1.283-1.014-1.975-.578-.691.436-.928 1.402-.53 2.157l10.133 19.167c.267.507.753.79 1.253.79.245 0 .494-.068.721-.212.692-.436.929-1.402.53-2.157zM35.155 58.096L25.023 38.93c-.399-.755-1.282-1.014-1.974-.578-.692.436-.929 1.402-.53 2.157l10.132 19.167c.268.507.754.79 1.253.79.246 0 .494-.068.722-.212.691-.436.928-1.401.529-2.157zM30.504 63.678L20.372 44.51c-.399-.755-1.283-1.014-1.975-.578-.691.436-.928 1.401-.529 2.157L28 65.257c.268.506.754.79 1.253.79.245 0 .494-.069.722-.212.691-.436.928-1.402.529-2.157zM27.699 69.465L16.822 50.1a1.53 1.53 0 0 0-2.12-.584c-.742.44-.996 1.416-.568 2.18l2.31 4.112-9.728 10.075a1.627 1.627 0 0 0 0 2.256 1.526 1.526 0 0 0 2.195 0l9.14-9.47 1.911 3.403-6.935 7.128a7.207 7.207 0 0 0-1.1-1.464 6.863 6.863 0 0 0-9.883 0c-2.725 2.801-2.725 7.359 0 10.16A6.85 6.85 0 0 0 6.986 80a6.85 6.85 0 0 0 4.942-2.104 7.239 7.239 0 0 0 2.047-5.08c0-.053 2.532-2.68 7.594-7.884l3.442 6.129c.287.511.809.798 1.345.798.264 0 .53-.07.775-.215.742-.44.996-1.416.568-2.179zM9.733 75.64a3.807 3.807 0 0 1-5.494 0c-1.515-1.557-1.515-4.091 0-5.648a3.82 3.82 0 0 1 2.747-1.168c.995 0 1.99.39 2.747 1.168a4.024 4.024 0 0 1 1.138 2.824c0 1.067-.404 2.07-1.138 2.824zM77.34 2.663A9.034 9.034 0 0 0 70.91 0a9.034 9.034 0 0 0-6.43 2.663l-7.032 7.032a1.563 1.563 0 1 0 2.21 2.21l7.033-7.031a5.928 5.928 0 0 1 4.22-1.748c1.594 0 3.092.62 4.22 1.748a5.973 5.973 0 0 1 0 8.437L60.16 28.28 50.132 18.253a4.273 4.273 0 0 0-3.042-1.26c-1.149 0-2.23.447-3.041 1.26a4.306 4.306 0 0 0 0 6.082l11.617 11.617a4.289 4.289 0 0 0 3.042 1.257c1.101 0 2.203-.419 3.041-1.257a4.308 4.308 0 0 0 .558-5.398L77.34 15.522c3.545-3.545 3.545-9.314 0-12.859zM59.54 33.741a1.176 1.176 0 0 1-1.662 0L46.259 22.125a1.176 1.176 0 0 1 1.662-1.662l11.618 11.616a1.176 1.176 0 0 1 0 1.662z"/>
        <path d="M56.867 13.83a2.757 2.757 0 0 0-3.898 0l-.069.07a2.757 2.757 0 0 0 3.898 3.897l.07-.069a2.757 2.757 0 0 0 0-3.898zM73.192 6.806a4.192 4.192 0 0 0-5.921 0 4.192 4.192 0 0 0 0 5.921 4.159 4.159 0 0 0 2.96 1.226c1.119 0 2.17-.435 2.961-1.226a4.16 4.16 0 0 0 1.227-2.96c0-1.12-.436-2.17-1.227-2.961zm-2.152 3.77a1.136 1.136 0 0 1-.809.334 1.145 1.145 0 0 1 0-2.287 1.14 1.14 0 0 1 1.144 1.143c0 .306-.119.593-.335.81z"/>
    </g>
</svg>
