<svg xmlns="http://www.w3.org/2000/svg" width="14" height="14" viewBox="0 0 14 14">
    <path fill="#FFF" fill-rule="nonzero" stroke="#FFF" stroke-width=".5" d="M13.294 3.336a.992.992 0 0 0 0-1.401L12.111.752a.992.992 0 0 0-1.4 0L7.128 4.333a.15.15 0 0 1-.213 0L3.349.766A1.005 1.005 0 0 0 2.634.47c-.27 0-.524.105-.715.296L.765 1.921a1.012 1.012 0 0 0 0 1.43l.87.87a.43.43 0 1 0 .608-.609l-.87-.87a.151.151 0 0 1 0-.213l1.155-1.155a.15.15 0 0 1 .213 0l3.567 3.567c.19.191.444.296.714.296.27 0 .524-.105.715-.296l3.581-3.581a.13.13 0 0 1 .185 0l1.183 1.183c.051.051.051.134 0 .185l-3.58 3.581a1.012 1.012 0 0 0 0 1.43l3.566 3.567a.151.151 0 0 1 0 .214l-1.155 1.155a.15.15 0 0 1-.213 0L7.737 9.107a1.004 1.004 0 0 0-.715-.296c-.27 0-.523.105-.714.296L2.726 12.69a.128.128 0 0 1-.092.038.127.127 0 0 1-.092-.038L1.36 11.506a.13.13 0 0 1 0-.185l3.58-3.582a1.013 1.013 0 0 0 0-1.43L3.67 5.04a.43.43 0 1 0-.607.608l1.27 1.27c.059.06.059.155 0 .214L.75 10.713a.991.991 0 0 0 0 1.4l1.183 1.184c.187.187.436.29.7.29a.983.983 0 0 0 .7-.29l3.582-3.582a.15.15 0 0 1 .214 0l3.566 3.568c.19.19.445.296.715.296.27 0 .524-.105.714-.296l1.155-1.155a1.012 1.012 0 0 0 0-1.43L9.713 7.132a.151.151 0 0 1 0-.214l3.581-3.581z"/>
</svg>
