<svg xmlns="http://www.w3.org/2000/svg" width="23" height="20" viewBox="0 0 23 20">
    <g fill="#ED0000" fill-rule="nonzero">
        <path d="M21.112 1.849A6.474 6.474 0 0 0 16.552 0a6.474 6.474 0 0 0-4.558 1.849l-.494.484-.494-.484c-2.514-2.461-6.604-2.461-9.118 0A6.207 6.207 0 0 0 0 6.313c0 1.686.67 3.271 1.888 4.464l9.286 9.093a.472.472 0 0 0 .651 0l4.432-4.34c.42-.41-.231-1.048-.651-.637l-4.106 4.02-8.96-8.774A5.32 5.32 0 0 1 .92 6.313a5.32 5.32 0 0 1 1.62-3.826A5.55 5.55 0 0 1 6.446.902a5.55 5.55 0 0 1 3.908 1.585l.82.802c.18.176.47.176.65 0l.82-.802A5.549 5.549 0 0 1 16.553.902a5.55 5.55 0 0 1 3.908 1.585 5.32 5.32 0 0 1 1.618 3.826 5.32 5.32 0 0 1-1.618 3.826l-2.25 2.203c-.42.411.23 1.049.65.638l2.25-2.203A6.207 6.207 0 0 0 23 6.313c0-1.686-.67-3.272-1.888-4.464-1.218-1.192 1.217 1.192 0 0z"/>
        <path d="M17.5 14c-.272 0-.5.228-.5.5s.228.5.5.5a.505.505 0 0 0 .5-.478.505.505 0 0 0-.5-.522z"/>
    </g>
</svg>
