<svg xmlns="http://www.w3.org/2000/svg" width="19" height="23" viewBox="0 0 19 23">
    <g fill="#ED0000" fill-rule="nonzero">
        <path d="M18.98 8.728a9.269 9.269 0 0 0-2.762-5.996c-3.705-3.643-9.731-3.643-13.436 0A9.268 9.268 0 0 0 .02 8.728a9.23 9.23 0 0 0 1.946 6.299l5.432 6.954A2.648 2.648 0 0 0 9.5 23c.83 0 1.596-.371 2.102-1.019l5.432-6.954a9.23 9.23 0 0 0 1.946-6.299zm-2.67 5.752l-5.433 6.954a1.735 1.735 0 0 1-1.377.667 1.735 1.735 0 0 1-1.377-.667L2.69 14.48a8.361 8.361 0 0 1 .738-11.113A8.634 8.634 0 0 1 9.499.898c2.2 0 4.398.823 6.072 2.47a8.36 8.36 0 0 1 .738 11.112z"/>
        <path d="M14.55 5.496a.453.453 0 0 0-.183.614c.476.882.727 1.881.727 2.89A6.101 6.101 0 0 1 9 15.095 6.101 6.101 0 0 1 2.906 9 6.101 6.101 0 0 1 9 2.906c1.067 0 2.116.279 3.035.808a.453.453 0 1 0 .452-.785A6.998 6.998 0 0 0 9 2C5.14 2 2 5.14 2 9s3.14 7 7 7 7-3.14 7-7c0-1.159-.29-2.307-.836-3.32a.453.453 0 0 0-.614-.184z"/>
        <path d="M14.222 4.916A.508.508 0 0 0 14.5 5a.502.502 0 0 0 .354-.854.477.477 0 0 0-.163-.108.505.505 0 0 0-.469.046.478.478 0 0 0-.184.225.506.506 0 0 0-.038.19.5.5 0 0 0 .222.417z"/>
    </g>
</svg>
