<svg xmlns="http://www.w3.org/2000/svg" width="49" height="41" viewBox="0 0 49 41">
    <g fill="#4A4A4A" fill-rule="nonzero">
        <path d="M24 13.388c-.552 0-1 .375-1 .836 0 .462.448.837 1 .837s1-.375 1-.837c0-.461-.448-.836-1-.836zM24 35.143c-.552 0-1 .375-1 .837 0 .461.448.836 1 .836s1-.375 1-.836c0-.462-.448-.837-1-.837zM5.9 15.898h7.2c.497 0 .9-.375.9-.837v-1.673c0-1.44-.777-2.708-1.982-3.468.667-.608 1.082-1.454 1.082-2.39 0-1.845-1.615-3.346-3.6-3.346S5.9 5.685 5.9 7.53c0 .935.416 1.782 1.084 2.39C5.787 10.674 5 11.947 5 13.388v1.673c0 .462.403.837.9.837zm3.6-10.04c.992 0 1.8.75 1.8 1.673 0 .922-.808 1.673-1.8 1.673s-1.8-.75-1.8-1.673.808-1.674 1.8-1.674zm-2.7 7.53c0-1.384 1.211-2.51 2.7-2.51 1.491 0 2.7 1.123 2.7 2.51v.836H6.8v-.836zM28 8.367c0-1.384-1.346-2.51-3-2.51s-3 1.126-3 2.51c0 1.385 1.346 2.51 3 2.51s3-1.125 3-2.51zm-3 .837c-.552 0-1-.375-1-.837 0-.461.448-.836 1-.836s1 .375 1 .836c0 .462-.448.837-1 .837zM34 10.878c1.654 0 3-1.126 3-2.51 0-1.385-1.346-2.51-3-2.51s-3 1.125-3 2.51c0 1.384 1.346 2.51 3 2.51zm0-3.347c.552 0 1 .375 1 .836 0 .462-.448.837-1 .837s-1-.375-1-.837c0-.461.448-.836 1-.836zM41 5.857c-1.654 0-3 1.126-3 2.51 0 1.385 1.346 2.51 3 2.51s3-1.125 3-2.51c0-1.384-1.346-2.51-3-2.51zm0 3.347c-.552 0-1-.375-1-.837 0-.461.448-.836 1-.836s1 .375 1 .836c0 .462-.448.837-1 .837zM5.9 36.816h7.2c.497 0 .9-.374.9-.836v-5.02c0-.463-.403-.838-.9-.838V28.45c0-1.849-1.61-3.347-3.6-3.347-1.985 0-3.6 1.502-3.6 3.347v1.673c-.497 0-.9.375-.9.837v5.02c0 .463.403.837.9.837zm1.8-8.367c0-.923.808-1.673 1.8-1.673.994 0 1.8.749 1.8 1.673v1.673H7.7V28.45zm-.9 3.347h5.4v3.347H6.8v-3.347zM28 30.122c0-1.384-1.346-2.51-3-2.51s-3 1.126-3 2.51c0 1.385 1.346 2.51 3 2.51s3-1.125 3-2.51zm-3 .837c-.552 0-1-.375-1-.837 0-.461.448-.836 1-.836s1 .375 1 .836c0 .462-.448.837-1 .837zM34 32.633c1.654 0 3-1.126 3-2.51 0-1.385-1.346-2.51-3-2.51s-3 1.125-3 2.51c0 1.384 1.346 2.51 3 2.51zm0-3.347c.552 0 1 .375 1 .836 0 .462-.448.837-1 .837s-1-.375-1-.837c0-.461.448-.836 1-.836zM41.063 35.143H27.937c-.517 0-.937.374-.937.837 0 .462.42.836.938.836h13.125c.517 0 .937-.374.937-.836 0-.463-.42-.837-.938-.837zM41.063 13.388H27.937c-.517 0-.937.374-.937.836 0 .463.42.837.938.837h13.125c.517 0 .937-.374.937-.837 0-.462-.42-.836-.938-.836z"/>
        <path d="M46.129.837H2.87C1.288.837 0 1.963 0 3.347v13.388c0 1.384 1.288 2.51 2.871 2.51H46.13c1.583 0 2.871-1.126 2.871-2.51V3.347c0-1.384-1.288-2.51-2.871-2.51zM17.227 17.57H2.87c-.528 0-.957-.375-.957-.836V3.347c0-.462.43-.837.957-.837h14.356v15.061zm29.859-.836c0 .461-.43.836-.957.836H19.14V2.511h26.988c.528 0 .957.374.957.836v13.388zM46.129 21.755H2.87C1.288 21.755 0 22.881 0 24.265v13.388c0 1.384 1.288 2.51 2.871 2.51H46.13c1.583 0 2.871-1.126 2.871-2.51V24.265c0-1.384-1.288-2.51-2.871-2.51zM17.227 38.49H2.87c-.528 0-.957-.375-.957-.837V24.265c0-.461.43-.836.957-.836h14.356v15.06zm29.859-.837c0 .462-.43.837-.957.837H19.14V23.429h26.988c.528 0 .957.375.957.836v13.388z"/>
    </g>
</svg>
