<svg xmlns="http://www.w3.org/2000/svg" width="40" height="46" viewBox="0 0 40 46">
    <g fill="#4A4A4A" fill-rule="nonzero">
        <path d="M34.111 26.594H5.83C3.05 26.594.79 28.836.79 31.591s2.26 4.996 5.04 4.996h2.953l-.381.307a1.462 1.462 0 0 0-.516 1.461c.12.548.536.975 1.084 1.114l.198.05-.977 3.775a.865.865 0 0 0 .628 1.053l2.968.755a.876.876 0 0 0 1.062-.622l.977-3.775.198.05c.548.14 1.12-.036 1.491-.458a1.46 1.46 0 0 0 .258-1.527l-.895-2.183h19.233c2.779 0 5.04-2.241 5.04-4.996 0-2.755-2.261-4.997-5.04-4.997zM9.357 38.79v-.001zm4.167.052a.985.985 0 0 0-1.2.703l-.949 3.667-1.277-.326.95-3.666a.976.976 0 0 0-.709-1.189l-.442-.112 1.653-1.332 1.086-.874.358.874.97 2.367-.44-.112zm16.206-3.985H14.17l-.36-.878a.877.877 0 0 0-1.359-.346l-1.52 1.224h-5.1c-1.817 0-3.295-1.465-3.295-3.266s1.478-3.267 3.294-3.267H29.73v6.533zm4.381 0h-2.636v-6.533h2.636c1.816 0 3.294 1.466 3.294 3.267 0 1.8-1.478 3.266-3.294 3.266z"/>
        <path d="M34.908 29.321a.722.722 0 0 0-1.064-.133.857.857 0 0 0-.125 1.144l.51.695-.51.694a.857.857 0 0 0 .125 1.145.721.721 0 0 0 1.064-.134l.882-1.2a.863.863 0 0 0 0-1.01l-.882-1.2zM6.445 31.737a.798.798 0 0 0 1.522-.465.858.858 0 0 0-.12-.29.767.767 0 0 0-.22-.223.816.816 0 0 0-.288-.12.801.801 0 0 0-.94.948c.01.051.026.102.046.15zM10.44 31.737a.798.798 0 0 0 1.522-.465.858.858 0 0 0-.119-.29.802.802 0 0 0-1.108-.223.818.818 0 0 0-.34.513.813.813 0 0 0 .046.465zM15.237 31.737a.798.798 0 0 0 1.52-.465.796.796 0 0 0-.218-.412.801.801 0 0 0-1.008-.101.818.818 0 0 0-.294.362.796.796 0 0 0-.046.466.76.76 0 0 0 .046.15zM20.032 31.737a.798.798 0 0 0 1.52-.465.796.796 0 0 0-.218-.412.801.801 0 0 0-1.008-.101.818.818 0 0 0-.294.362.858.858 0 0 0-.062.309.801.801 0 0 0 .062.307zM24.827 31.738a.797.797 0 0 0 1.536-.308.813.813 0 0 0-.234-.57.818.818 0 0 0-.408-.22.785.785 0 0 0-.6.12.818.818 0 0 0-.294.361.858.858 0 0 0-.062.309.8.8 0 0 0 .062.308zM11.93 21.597a.87.87 0 0 0 .067.057 12.437 12.437 0 0 0 6.91 2.505l.055.003.24.009.071.002a13.26 13.26 0 0 0 .597 0l.068-.002a13.065 13.065 0 0 0 .293-.012 12.424 12.424 0 0 0 7.002-2.573.87.87 0 0 0 .08-.068c2.83-2.218 4.645-5.62 4.645-9.43C31.958 5.423 26.4 0 19.57 0S7.183 5.423 7.183 12.088c0 3.855 1.859 7.294 4.747 9.509zm8.778.811l-.163.016-.181.015a11.043 11.043 0 0 1-2.138-.054l-.037-.005a10.729 10.729 0 0 1-4.78-1.836v-1.547c0-2.036 1.036-3.84 2.62-4.937a5.893 5.893 0 0 0 3.583 1.206c1.35 0 2.594-.451 3.584-1.206 1.584 1.098 2.62 2.9 2.62 4.937v1.487a10.73 10.73 0 0 1-5.108 1.924zm-1.137-20.7c5.864 0 10.636 4.657 10.636 10.38 0 2.617-.998 5.01-2.64 6.837-.024-2.495-1.26-4.712-3.158-6.117a5.564 5.564 0 0 0 .972-4.078.873.873 0 0 0-.995-.719.858.858 0 0 0-.737.97 3.898 3.898 0 0 1-.747 2.947 4.086 4.086 0 0 1-1.564 1.255 4.14 4.14 0 0 1-1.726.374 4.14 4.14 0 0 1-1.725-.374 4.086 4.086 0 0 1-1.564-1.254 3.898 3.898 0 0 1-.792-2.354c0-2.197 1.83-3.983 4.081-3.983.31 0 .619.034.917.1a.876.876 0 0 0 1.05-.641.854.854 0 0 0-.658-1.024 6 6 0 0 0-1.309-.144c-3.216 0-5.832 2.553-5.832 5.692 0 1.2.384 2.314 1.036 3.233-1.917 1.418-3.158 3.665-3.158 6.189v.019c-1.692-1.839-2.723-4.268-2.723-6.928 0-5.723 4.77-10.38 10.636-10.38z"/>
        <path d="M22.43 6.756a.82.82 0 0 0 .293.362.787.787 0 0 0 .6.12.828.828 0 0 0 .287-.12.762.762 0 0 0 .22-.224.82.82 0 0 0 .12-.604.76.76 0 0 0-.12-.29.767.767 0 0 0-.22-.223.814.814 0 0 0-.287-.12.777.777 0 0 0-.462.046.792.792 0 0 0-.432.436.817.817 0 0 0 0 .617z"/>
    </g>
</svg>
