<svg xmlns="http://www.w3.org/2000/svg" width="23" height="23" viewBox="0 0 23 23">
    <path fill="#FFF" fill-rule="nonzero" d="M22.872 8.596c-.34-1.085-1.263-1.785-2.354-1.785h-4.596a.66.66 0 0 1-.646-.463l-1.42-4.57C13.517.697 12.592 0 11.5 0S9.482.698 9.144 1.78l-1.42 4.567a.661.661 0 0 1-.646.464H2.482c-1.09 0-2.015.7-2.354 1.785-.34 1.088.012 2.224.898 2.892l3.718 2.806a.72.72 0 0 1 .247.79l-1.42 4.54c-.338 1.08.015 2.208.9 2.875.442.334.949.501 1.455.501.507 0 1.014-.167 1.456-.5l3.718-2.806c.24-.18.56-.18.8 0l3.718 2.805a2.367 2.367 0 0 0 2.911 0c.884-.667 1.238-1.796.9-2.876l-.972-3.107a.892.892 0 0 0-1.132-.6c-.472.16-.73.686-.577 1.176l.972 3.108a.698.698 0 0 1-.247.79.64.64 0 0 1-.8 0l-3.717-2.806a2.396 2.396 0 0 0-2.912 0L6.326 20.99a.64.64 0 0 1-.8 0 .698.698 0 0 1-.246-.79l1.42-4.54c.332-1.063-.03-2.219-.9-2.876L2.082 9.98c-.374-.282-.282-.689-.246-.807.037-.116.19-.495.646-.495h4.596a2.47 2.47 0 0 0 2.356-1.755l1.42-4.568a.66.66 0 0 1 .646-.488.66.66 0 0 1 .646.487l1.421 4.57a2.469 2.469 0 0 0 2.355 1.754h4.596c.455 0 .609.379.645.495.037.118.129.525-.245.807l-2.535 1.913a.957.957 0 0 0-.2 1.303.877.877 0 0 0 1.256.206l2.535-1.913c.886-.668 1.239-1.804.898-2.892z"/>
</svg>
