<svg xmlns="http://www.w3.org/2000/svg" width="20" height="25" viewBox="0 0 20 25">
    <g fill="#F42B17" fill-rule="nonzero">
        <path d="M19.979 9.341a9.992 9.992 0 0 0-2.908-6.418C13.172-.975 6.828-.974 2.93 2.923a9.992 9.992 0 0 0-.86 13.16l5.718 7.442A2.77 2.77 0 0 0 10 24.615a2.77 2.77 0 0 0 2.213-1.09l5.718-7.443a9.992 9.992 0 0 0 2.048-6.74zm-2.811 6.156l-5.718 7.442a1.815 1.815 0 0 1-1.45.715c-.573 0-1.1-.26-1.45-.715l-5.718-7.442C.08 11.912.412 6.799 3.61 3.604A9.011 9.011 0 0 1 10 .96c2.315 0 4.63.881 6.392 2.643 3.196 3.195 3.53 8.308.777 11.893z"/>
        <path d="M15.41 6.15a.511.511 0 0 0-.192.674c.497.969.76 2.067.76 3.176 0 3.693-2.854 6.697-6.363 6.697-3.508 0-6.362-3.004-6.362-6.697s2.854-6.697 6.362-6.697c1.114 0 2.21.307 3.169.888a.46.46 0 0 0 .645-.183.512.512 0 0 0-.174-.68 7.026 7.026 0 0 0-3.64-1.02c-4.03 0-7.307 3.45-7.307 7.692s3.278 7.692 7.307 7.692c4.03 0 7.308-3.45 7.308-7.692a8.03 8.03 0 0 0-.873-3.649.46.46 0 0 0-.64-.201z"/>
    </g>
</svg>
