<svg xmlns="http://www.w3.org/2000/svg" width="22" height="21" viewBox="0 0 22 21">
    <g fill="#EE0E0E" fill-rule="nonzero">
        <path d="M13.386 12.531l-2.674-5.312c-.105-.21-.339-.281-.521-.16-.183.12-.245.388-.14.597l2.674 5.313c.071.14.2.219.331.219.065 0 .13-.02.19-.06.183-.12.246-.388.14-.597zM12.386 13.531L9.712 8.219c-.105-.21-.339-.281-.521-.16-.183.12-.245.388-.14.597l2.674 5.313c.071.14.2.219.331.219.065 0 .13-.02.19-.06.183-.12.246-.388.14-.597zM11.386 14.531L8.712 9.219c-.105-.21-.339-.281-.521-.16-.183.12-.245.388-.14.597l2.674 5.313c.071.14.2.219.331.219.065 0 .13-.02.19-.06.183-.12.246-.388.14-.597zM9.386 16.531l-2.674-5.312c-.105-.21-.339-.281-.521-.16-.183.12-.245.388-.14.597l2.674 5.313c.071.14.2.218.331.218.065 0 .13-.018.19-.058.183-.121.246-.389.14-.598zM8.386 17.531l-2.674-5.312c-.105-.21-.339-.281-.521-.16-.183.12-.245.388-.14.597l2.674 5.313c.071.14.2.218.331.218.065 0 .13-.018.19-.058.183-.121.246-.389.14-.598zM7.454 18.228l-2.927-5.021a.42.42 0 0 0-.57-.152.412.412 0 0 0-.154.566l.622 1.066-2.618 2.612a.411.411 0 0 0 0 .585.418.418 0 0 0 .59 0l2.46-2.455.515.882-1.867 1.849a1.896 1.896 0 0 0-2.956-.38 1.853 1.853 0 0 0 .001 2.635c.355.351.828.545 1.33.545.502 0 .975-.194 1.33-.545.355-.352.55-.82.55-1.318 0-.013.682-.695 2.044-2.044l.926 1.59a.418.418 0 0 0 .57.15.412.412 0 0 0 .154-.565zM2.619 19.83c-.197.195-.46.303-.74.303-.278 0-.541-.108-.738-.303a1.03 1.03 0 0 1 0-1.465c.203-.202.471-.303.739-.303s.535.101.74.303c.197.196.305.456.305.732 0 .277-.108.537-.306.733zM21.204.71A2.407 2.407 0 0 0 19.491 0c-.647 0-1.255.252-1.713.71l-1.873 1.873a.416.416 0 1 0 .589.589l1.873-1.874c.3-.3.7-.465 1.124-.465a1.591 1.591 0 0 1 1.124 2.713l-3.988 3.988-2.671-2.671a1.138 1.138 0 0 0-.81-.336 1.147 1.147 0 0 0-.81 1.956l3.094 3.095c.223.223.517.335.81.335A1.148 1.148 0 0 0 17.2 8.14l4.005-4.005a2.425 2.425 0 0 0 0-3.426zm-4.742 8.279a.313.313 0 0 1-.443 0l-3.095-3.095a.313.313 0 0 1 .443-.443l3.095 3.095a.313.313 0 0 1 0 .443z"/>
        <path d="M15.176 4.199a.68.68 0 0 0-.96 0l-.017.017a.68.68 0 0 0 .96.96l.017-.017a.68.68 0 0 0 0-.96zM19.923 1.33a1.128 1.128 0 0 0-1.594 0 1.128 1.128 0 0 0 .797 1.923c.301 0 .584-.117.797-.33a1.12 1.12 0 0 0 .33-.797 1.12 1.12 0 0 0-.33-.797zm-.58 1.014a.306.306 0 0 1-.434 0 .308.308 0 1 1 .435 0z"/>
    </g>
</svg>
